<svg width="121" height="35" viewBox="0 0 121 35" fill="none" xmlns="http://www.w3.org/2000/svg">
  <path d="M55.4209 32.4477C55.3297 32.5807 55.2156 32.6916 55.1243 32.8245C54.3713 33.7998 53.4357 34.487 52.1807 34.6864C49.9901 35.0633 48.3016 33.9993 47.8224 31.9601C47.0237 28.6131 48.872 24.2465 53.4814 23.3377C55.2384 22.983 56.9726 23.1604 58.684 23.6702C58.8437 23.7145 59.2544 23.914 59.3229 23.9583C59.2316 24.579 59.1403 25.2218 59.0491 25.8424C58.8209 27.394 58.5699 28.9456 58.3417 30.5193C58.2961 30.8961 58.2961 31.2951 58.3645 31.6719C58.4786 32.2704 58.9121 32.5364 59.5282 32.4034C59.9846 32.3147 60.3954 32.0931 60.7148 31.7828C61.1484 31.3838 61.445 30.9183 61.6504 30.4085C62.1524 29.2116 62.2893 27.9481 62.2208 26.6847C62.1752 25.7094 61.9698 24.7785 61.5363 23.8918C60.6235 21.9856 59.0719 20.7665 56.9954 20.2567C53.9834 19.5031 51.1767 19.9685 48.6895 21.8304C46.7499 23.2934 45.6775 25.2661 45.2439 27.5713C44.9244 29.3002 44.9473 31.007 45.4949 32.6916C45.6546 33.2014 45.9056 33.689 46.1338 34.1988C46.1795 34.3096 46.2479 34.4205 46.3164 34.5535C46.1566 34.5535 46.0425 34.5535 45.9513 34.5535C45.1983 34.5535 44.4681 34.5535 43.7151 34.5535C43.4184 34.5535 43.2815 34.4426 43.1674 34.1988C42.7339 33.1792 42.4601 32.0931 42.3916 31.007C42.1862 28.1033 42.8251 25.3991 44.5137 22.9831C46.4076 20.2789 49.0089 18.6386 52.3176 18.018C54.5767 17.5968 56.79 17.6855 58.935 18.5278C62.3121 19.8577 64.2973 22.2959 64.7993 25.8202C65.0731 27.7265 64.8221 29.5884 63.955 31.3173C63.2248 32.8024 62.0839 33.8885 60.4638 34.4205C59.5511 34.7308 58.5927 34.8194 57.6343 34.6421C56.6303 34.4426 55.9914 33.8442 55.6719 32.9132C55.6263 32.7359 55.5807 32.5807 55.5122 32.4034C55.4894 32.4477 55.4437 32.4477 55.4209 32.4477ZM55.4894 26.0641C55.3297 26.0197 55.1927 25.9754 55.0787 25.9754C54.0746 25.8646 53.2532 26.1971 52.5686 26.9063C51.9069 27.5935 51.5646 28.4136 51.4277 29.3446C51.3364 29.8987 51.3364 30.4528 51.519 30.9848C51.77 31.7163 52.4774 32.0487 53.2304 31.8049C53.6183 31.6719 53.9149 31.4281 54.1887 31.1178C54.5995 30.6302 54.8505 30.076 54.9874 29.4775C55.0787 29.0121 55.1471 28.5466 55.2156 28.0811C55.3068 27.394 55.3981 26.7512 55.4894 26.0641Z" fill="white"/>
  <path d="M108.77 32.3591C108.838 32.1817 108.93 32.0266 108.998 31.8493C110.048 29.4332 111.097 26.995 112.147 24.579C112.489 23.781 113.105 23.4042 113.972 23.3599C114.246 23.3377 114.52 23.3377 114.794 23.382C115.524 23.4929 116.049 23.8918 116.323 24.579C116.893 25.9089 117.464 27.2388 118.057 28.5909C118.856 30.4528 119.654 32.3147 120.453 34.1766C120.521 34.3318 120.59 34.487 120.658 34.6864C119.517 34.6864 118.422 34.6864 117.327 34.6864C116.3 32.1817 115.296 29.6992 114.292 27.1945C114.246 27.1945 114.223 27.1945 114.201 27.1945C114.132 27.3275 114.064 27.4383 114.018 27.5713C113.219 29.544 112.421 31.5168 111.622 33.4673C111.485 33.7998 111.12 34.6864 111.12 34.6864C111.097 34.6864 110.983 34.6864 110.892 34.6864C109.386 34.6864 107.903 34.6864 106.397 34.6864C106.374 34.6864 106.374 34.6864 106.328 34.6864C106.283 34.5978 106.214 34.4426 106.146 34.3096C105.895 33.7112 105.621 33.1349 105.416 32.5364C105.301 32.2482 105.142 32.1596 104.845 32.1817C103.727 32.2039 102.609 32.1817 101.491 32.1817C101.057 32.1817 101.057 32.1817 100.897 32.5586C100.669 33.1127 100.441 33.6668 100.213 34.221C100.144 34.3761 100.076 34.5313 100.008 34.6864C98.9123 34.6864 97.8626 34.6864 96.7217 34.6864C96.7901 34.5091 96.8358 34.3761 96.8814 34.2431C98.0452 31.5389 99.2089 28.8569 100.35 26.1527C100.555 25.6872 100.738 25.2218 100.943 24.7563C101.354 23.8032 102.061 23.3155 103.134 23.3377C104.275 23.3599 104.936 23.7588 105.393 24.8006C106.42 27.1723 107.424 29.5219 108.45 31.8936C108.519 32.0487 108.587 32.2039 108.656 32.3591C108.701 32.3591 108.724 32.3591 108.77 32.3591ZM104.252 29.5884C103.909 28.7018 103.59 27.8816 103.156 27.0615C102.723 27.8816 102.381 28.7018 102.061 29.5884C102.837 29.5884 103.499 29.5884 104.252 29.5884Z" fill="white"/>
  <path d="M91.0406 31.1179C91.0406 32.3148 91.0406 33.4674 91.0406 34.6865C89.9909 34.6865 88.9413 34.6865 87.8916 34.6865C87.8916 34.5092 87.8916 28.3915 87.8916 25.4435C87.8916 24.2909 88.599 23.4708 89.8996 23.4486C91.7251 23.4486 93.505 23.4486 95.3076 23.4486C96.1291 23.4486 96.9049 23.6924 97.4982 24.2909C97.8633 24.6677 98.0915 25.111 98.2056 25.6208C98.4566 26.7734 98.4794 27.926 98.1828 29.0565C97.8405 30.3199 96.8821 31.0957 95.5358 31.14C94.1667 31.1179 92.0218 31.1179 91.0406 31.1179ZM91.0634 28.4137C91.2687 28.4137 94.3264 28.4137 94.4177 28.4137C94.8284 28.4137 95.1023 28.1255 95.1023 27.8374C95.1251 27.4827 95.1023 26.9951 95.1023 26.6848C95.1023 26.3745 94.8513 26.1085 94.4177 26.1085C94.3264 26.1085 91.2459 26.1085 91.0634 26.1085C91.0634 26.8843 91.0634 27.5936 91.0634 28.4137Z" fill="white"/>
  <path d="M77.874 32.0709C77.874 32.9797 77.874 33.822 77.874 34.6865C76.9384 34.6865 73.0136 34.6865 70.6177 34.6865C70.1613 34.6865 69.6821 34.62 69.2258 34.487C67.6057 34.0215 66.7158 32.9132 66.3507 31.3616C66.2366 30.874 66.1909 30.3642 66.1681 29.8765C66.1225 28.9234 66.1225 27.9481 66.3278 26.995C66.7386 24.978 68.1305 23.7367 70.2298 23.5372C70.6633 23.4929 71.0741 23.4707 71.5076 23.4707C72.7855 23.4707 75.6378 23.4707 75.8431 23.4707C75.8431 24.3573 75.8431 25.2218 75.8431 26.1084C75.6378 26.1084 73.2418 26.1306 72.215 26.1527C71.8043 26.1527 71.4164 26.1749 71.0056 26.2192C70.2754 26.2857 69.7506 26.6625 69.5452 27.3718C69.3171 28.1476 69.2714 28.9678 69.3171 29.7657C69.3399 30.0982 69.3855 30.4307 69.454 30.7632C69.6137 31.5389 70.0472 31.9158 70.8459 32.0266C71.2338 32.0709 71.6445 32.1153 72.0325 32.1153C73.8123 32.0709 77.6458 32.0709 77.874 32.0709Z" fill="white"/>
  <path d="M86.8417 23.4264C86.8417 23.8032 86.8417 25.6429 86.8417 26.0863C86.682 26.0863 86.545 26.0863 86.3625 26.0863C85.5638 26.0863 84.788 26.0863 84.0122 26.0863C83.8525 26.0863 83.6927 26.0863 83.4646 26.0863C83.4646 28.9456 83.4646 31.8271 83.4646 34.6643C82.4149 34.6643 81.3881 34.6643 80.3384 34.6643C80.3384 31.8271 80.3384 28.9456 80.3384 26.0863C79.1747 26.0863 78.0566 26.0863 76.9385 26.0863C76.9385 25.7094 76.9385 24.0027 76.9385 23.4264C80.2472 23.4264 83.5558 23.4264 86.8417 23.4264Z" fill="white"/>
  <path d="M21.8534 34.5757C19.1608 35.1521 16.5367 35.1521 13.8213 34.5093C14.0038 34.3763 14.1179 34.2876 14.232 34.1989C16.0347 32.8247 17.4951 31.1623 18.4306 29.1009C19.0467 27.7709 19.2521 26.3523 19.0467 24.8894C19.0239 24.7564 19.0695 24.6013 19.138 24.5126C20.0964 23.0718 21.1917 21.7419 22.6292 20.7001C23.5876 19.9908 24.6601 19.5032 25.8694 19.3702C26.7822 19.2594 27.6721 19.3702 28.5164 19.7248C31.1633 20.8331 33.1942 22.6064 34.1982 25.2884C35.6357 29.1452 33.4223 32.7803 30.1821 34.1768C28.6076 34.8639 27.0332 34.7309 25.5272 33.8886C24.3634 33.2458 23.4735 32.337 22.8574 31.1844C22.652 30.8076 22.5151 30.3643 22.401 29.921C22.3098 29.522 22.3782 29.123 22.6064 28.7462C22.8346 28.3694 23.0856 28.3251 23.405 28.6132C23.6789 28.857 23.9299 29.123 24.1581 29.4112C25.1621 30.6968 26.1204 32.0045 27.1245 33.3123C27.3983 33.667 27.4667 33.7113 27.8318 33.534C30.0224 32.5365 31.7338 31.0514 32.3955 28.7241C33.0572 26.3967 32.3499 24.3574 30.6613 22.6285C30.0452 22.0079 29.315 21.5424 28.4479 21.3429C27.558 21.1434 26.7365 21.3208 26.0063 21.8306C24.9339 22.5842 24.3634 23.626 24.3178 24.9116C24.3178 25.1111 24.3178 25.3327 24.3178 25.5544C24.1809 25.5322 24.0896 25.5322 23.9983 25.4879C23.2225 25.2441 22.5151 25.3992 21.8762 25.8425C20.7353 26.6627 20.0507 27.7709 19.8454 29.1674C19.6172 30.6746 20.0964 32.0267 20.9178 33.2902C21.1688 33.7335 21.5111 34.1103 21.8534 34.5757Z" fill="white"/>
  <path d="M11.6313 9.39576C11.8823 9.44009 12.0877 9.50659 12.293 9.52876C13.0004 9.61742 13.6621 9.44009 14.2098 8.99678C15.5104 7.93284 16.195 6.55858 16.1265 4.89616C16.0809 3.34458 15.3735 2.01464 14.3923 0.839869C14.2782 0.706876 14.187 0.59605 14.0272 0.418726C16.7426 -0.157578 19.3668 -0.13541 22.105 0.463059C21.9224 0.596052 21.8083 0.684713 21.7171 0.773375C19.9144 2.14764 18.4768 3.78788 17.5185 5.82711C16.9024 7.15704 16.6514 8.57564 16.8567 10.0164C16.8795 10.2381 16.8567 10.3932 16.7198 10.5705C15.9896 11.6345 15.1682 12.6541 14.2098 13.5407C13.5252 14.1613 12.7722 14.6933 11.9279 15.0923C10.4219 15.7794 8.87027 15.8903 7.36425 15.2696C4.8314 14.2278 2.86901 12.5211 1.81936 10.0164C0.244891 6.24826 2.2301 2.41362 5.65286 0.884203C7.40988 0.10841 9.14409 0.307901 10.7414 1.34968C11.6541 1.94815 12.3843 2.72394 12.9548 3.65489C13.2514 4.14253 13.4568 4.65234 13.5252 5.22865C13.5709 5.62762 13.5024 6.00444 13.2742 6.33692C13.046 6.64724 12.8407 6.69157 12.5669 6.44775C12.2702 6.20393 12.0192 5.91577 11.791 5.62762C10.787 4.34202 9.82864 3.03426 8.82463 1.72649C8.55081 1.37184 8.45953 1.32751 8.07162 1.50483C5.85823 2.52445 4.16966 4.03171 3.50793 6.42558C2.75492 9.12978 4.19248 11.9005 6.24614 13.1639C8.64208 14.6712 10.8783 13.0974 11.4716 11.1468C11.5857 10.77 11.6085 10.3489 11.6541 9.9499C11.6541 9.72824 11.6313 9.57308 11.6313 9.39576Z" fill="white"/>
  <path d="M18.0425 13.1414C19.1834 14.9368 20.6894 16.3111 22.4008 17.5524C20.5753 18.6606 19.1606 20.1236 17.8827 21.8081C16.7418 20.0127 15.2586 18.6385 13.5244 17.3972C15.3499 16.3111 16.7646 14.8482 18.0425 13.1414Z" fill="white"/>
  <path d="M28.5856 29.411C28.4943 29.3223 28.4258 29.2558 28.3574 29.1672C27.9923 28.7017 27.6044 28.214 27.2393 27.7264C26.9198 27.3052 26.6688 26.8176 26.6004 26.2856C26.5775 26.0196 26.6004 25.7315 26.6688 25.4655C26.8057 25.0222 27.2849 24.867 27.7185 25.0887C28.1748 25.3325 28.4943 25.6872 28.7681 26.1083C29.2017 26.7954 29.4527 27.5491 29.2473 28.3692C29.1788 28.7903 28.9735 29.145 28.5856 29.411Z" fill="white"/>
  <path d="M7.34211 5.56097C7.38775 5.62747 7.4562 5.6718 7.50184 5.7383C7.88976 6.2481 8.30049 6.75791 8.6884 7.26772C9.03068 7.71103 9.25886 8.19867 9.3045 8.75281C9.32732 8.9523 9.3045 9.15179 9.25886 9.32911C9.14477 9.86109 8.61995 10.0827 8.14076 9.81675C7.63875 9.55077 7.29647 9.12962 7.02265 8.64198C6.63474 7.97702 6.45219 7.24556 6.65756 6.46976C6.77165 6.09295 6.97702 5.80479 7.34211 5.56097Z" fill="white"/>
  <path d="M26.304 11.2577C26.2584 11.3907 26.2356 11.4793 26.2127 11.5458C25.9617 12.3216 26.0986 13.0531 26.6006 13.6737C27.4449 14.7598 28.5859 15.4248 29.9778 15.6021C31.3241 15.7794 32.5563 15.447 33.72 14.8042C34.1992 14.5382 34.6327 14.1835 35.0891 13.8732C35.2032 13.7845 35.3173 13.6959 35.4314 13.6072C36.0931 15.2475 36.0475 20.0796 35.3629 21.5203C35.2717 21.4095 35.2032 21.3208 35.1347 21.21C33.9254 19.6141 32.4194 18.3506 30.6395 17.3754C29.2932 16.6439 27.8328 16.2449 26.2812 16.3336C26.1443 16.3336 26.0074 16.3336 25.8933 16.3557C25.4825 16.4887 25.1631 16.3558 24.8208 16.1119C23.7483 15.3805 22.7443 14.5825 21.8544 13.6516C21.2383 12.9866 20.7135 12.2551 20.3484 11.435C19.7095 10.0386 19.5954 8.61998 20.1887 7.20139C21.2155 4.67452 22.9725 2.74612 25.5738 1.68217C28.4489 0.507402 31.0959 1.08371 33.3777 3.1451C34.0623 3.76574 34.6099 4.4972 34.9978 5.33949C35.728 6.95757 35.6596 8.53132 34.7697 10.0829C34.1079 11.2133 33.1724 12.0778 32.0086 12.6984C31.461 13.0088 30.8677 13.1861 30.206 13.1639C29.8637 13.1417 29.567 13.0531 29.316 12.8093C29.1107 12.6098 29.065 12.4325 29.2476 12.2108C29.4986 11.9226 29.7952 11.6345 30.1147 11.4128C31.4382 10.4376 32.7616 9.5066 34.0851 8.55349C34.5415 8.221 34.5871 8.17667 34.3361 7.68903C33.4234 5.87146 32.1227 4.40853 30.1603 3.61057C27.1711 2.39147 23.9993 3.76573 22.4933 5.98228C20.9645 8.26533 22.4477 10.4376 24.5242 11.0582C24.9349 11.169 25.3685 11.1912 25.802 11.2355C25.9389 11.2798 26.0986 11.2577 26.304 11.2577Z" fill="white"/>
  <path d="M9.60087 23.6925C9.62369 23.6038 9.62369 23.5595 9.6465 23.493C9.98878 22.6064 9.80623 21.8084 9.19014 21.0991C7.95794 19.6805 6.38346 19.0821 4.48953 19.3259C3.07479 19.5032 1.88823 20.146 0.81576 21.0326C0.701668 21.1213 0.610394 21.2099 0.496302 21.2986C-0.165434 20.2125 -0.165434 15.4912 0.496302 13.3633C0.587575 13.4963 0.678849 13.585 0.770123 13.6958C1.9795 15.2696 3.4627 16.533 5.21972 17.5083C6.81702 18.3728 8.55122 18.7717 10.3767 18.5057C10.4908 18.4836 10.6277 18.5279 10.7418 18.5944C12.1337 19.481 13.4115 20.4785 14.4384 21.7419C14.8947 22.296 15.2598 22.8724 15.5565 23.5152C16.1726 24.8894 16.2639 26.2858 15.7162 27.6601C14.6894 30.2091 12.9095 32.1597 10.3082 33.2236C6.38346 34.8417 2.43587 32.8468 0.861397 29.522C0.473484 28.7462 0.336573 27.9039 0.405028 27.0395C0.450665 26.3967 0.610395 25.7982 0.907035 25.2441C1.61441 23.8698 2.68687 22.828 4.0788 22.1187C4.64926 21.8306 5.24254 21.6754 5.90428 21.7862C5.99555 21.8084 6.10964 21.8306 6.20092 21.8749C6.83983 22.1187 6.90829 22.4734 6.45192 22.9388C6.22373 23.1605 5.97273 23.3822 5.69891 23.5595C4.37544 24.5126 3.05197 25.4657 1.7285 26.4188C1.38622 26.6627 1.34058 26.7292 1.50031 27.0838C2.57278 29.3225 4.17007 30.9849 6.72574 31.6056C7.72975 31.8494 8.73377 31.8051 9.73778 31.5169C11.0156 31.1623 12.0881 30.453 12.978 29.4777C13.3203 29.1009 13.5941 28.6797 13.7766 28.1921C14.233 26.973 14.0276 25.8869 13.1377 24.9337C12.3163 24.0693 11.2894 23.6481 10.0801 23.6703C9.94314 23.6925 9.78342 23.6925 9.60087 23.6925Z" fill="white"/>
  <path d="M30.2516 7.13511C29.567 7.64492 28.9053 8.13256 28.2208 8.59803C27.8785 8.84185 27.4677 9.01918 27.0342 9.06351C26.7376 9.08567 26.4181 9.08568 26.1443 8.99701C25.6651 8.84186 25.5054 8.37638 25.7107 7.95523C25.7564 7.86657 25.802 7.77791 25.8705 7.71141C26.6235 6.84696 27.5362 6.31499 28.7228 6.35932C29.3389 6.35932 29.8409 6.60314 30.2516 7.13511Z" fill="white"/>
  <path d="M5.67676 27.8154C6.38413 27.3056 7.06868 26.7958 7.77605 26.3081C8.27806 25.9756 8.84852 25.7983 9.48744 25.887C9.66999 25.9091 9.87535 25.9978 10.0351 26.1086C10.3089 26.3081 10.3774 26.6184 10.2404 26.9287C10.2176 26.9731 10.1948 27.0396 10.172 27.0839C9.60153 28.1035 7.98142 28.8128 6.81768 28.5468C6.36131 28.4582 5.9734 28.2365 5.67676 27.8154Z" fill="white"/>
</svg>
