<svg width="46" height="46" viewBox="0 0 46 46" fill="none" xmlns="http://www.w3.org/2000/svg">
  <path d="M40.2 1C37.5528 1 35.4 3.1528 35.4 5.8C35.4 6.628 35.6104 7.4072 35.9808 8.088L28.1176 15.9512C27.0336 15.1072 25.6768 14.6 24.2 14.6C22.7232 14.6 21.3664 15.1072 20.2816 15.9504L14.1464 9.8152C14.428 9.3392 14.6 8.792 14.6 8.2C14.6 6.4352 13.1648 5 11.4 5C9.6352 5 8.2 6.4352 8.2 8.2C8.2 9.9648 9.6352 11.4 11.4 11.4C11.992 11.4 12.5392 11.228 13.0152 10.9464L19.1504 17.0816C18.3072 18.1664 17.8 19.5232 17.8 21C17.8 22.4768 18.3072 23.8336 19.1504 24.9176L9.0192 35.0496C8.1664 34.276 7.0392 33.8 5.8 33.8C3.1528 33.8 1 35.9528 1 38.6C1 41.2472 3.1528 43.4 5.8 43.4C8.4472 43.4 10.6 41.2472 10.6 38.6C10.6 37.772 10.3896 36.9928 10.0192 36.312L20.2824 26.0488C21.1672 26.7368 22.2344 27.1976 23.4008 27.344V35.472C21.1344 35.8544 19.4008 37.8256 19.4008 40.2C19.4008 42.8472 21.5536 45 24.2008 45C26.848 45 29.0008 42.8472 29.0008 40.2C29.0008 37.8264 27.2672 35.8552 25.0008 35.472V27.344C26.1672 27.1976 27.2344 26.7368 28.1192 26.0488L34.2544 32.184C33.972 32.6608 33.8 33.208 33.8 33.8C33.8 35.5648 35.2352 37 37 37C38.7648 37 40.2 35.5648 40.2 33.8C40.2 32.0352 38.7648 30.6 37 30.6C36.408 30.6 35.8608 30.772 35.3848 31.0536L29.2496 24.9184C30.0928 23.8336 30.6 22.4768 30.6 21C30.6 19.5232 30.0928 18.1664 29.2496 17.0824L36.9816 9.3504C37.8336 10.124 38.9608 10.6 40.2 10.6C42.8472 10.6 45 8.4472 45 5.8C45 3.1528 42.8472 1 40.2 1ZM9.8 8.2C9.8 7.3176 10.5176 6.6 11.4 6.6C12.2824 6.6 13 7.3176 13 8.2C13 9.0824 12.2824 9.8 11.4 9.8C10.5176 9.8 9.8 9.0824 9.8 8.2ZM5.8 41.8C4.0352 41.8 2.6 40.3648 2.6 38.6C2.6 36.8352 4.0352 35.4 5.8 35.4C7.5648 35.4 9 36.8352 9 38.6C9 40.3648 7.5648 41.8 5.8 41.8ZM27.4 40.2C27.4 41.9648 25.9648 43.4 24.2 43.4C22.4352 43.4 21 41.9648 21 40.2C21 38.4352 22.4352 37 24.2 37C25.9648 37 27.4 38.4352 27.4 40.2ZM24.2 25.8C21.5528 25.8 19.4 23.6472 19.4 21C19.4 18.3528 21.5528 16.2 24.2 16.2C26.8472 16.2 29 18.3528 29 21C29 23.6472 26.8472 25.8 24.2 25.8ZM38.6 33.8C38.6 34.6824 37.8824 35.4 37 35.4C36.1176 35.4 35.4 34.6824 35.4 33.8C35.4 32.9176 36.1176 32.2 37 32.2C37.8824 32.2 38.6 32.9176 38.6 33.8ZM40.2 9C38.4352 9 37 7.5648 37 5.8C37 4.0352 38.4352 2.6 40.2 2.6C41.9648 2.6 43.4 4.0352 43.4 5.8C43.4 7.5648 41.9648 9 40.2 9Z" fill="#439F41" stroke="#439F41"/>
</svg>
