<svg width="47" height="47" viewBox="0 0 47 47" fill="none" xmlns="http://www.w3.org/2000/svg">
<g clip-path="url(#clip0)">
<path d="M40.6755 27.2677L40.6755 27.2676C41.5387 26.9185 42.5214 27.3357 42.8704 28.1988L46.7271 37.7391C46.9843 38.3753 46.8302 39.1038 46.3375 39.5814L46.4419 39.6891L46.3375 39.5814C46.0165 39.8927 45.5933 40.057 45.1636 40.057C44.9341 40.057 44.7028 40.0101 44.4839 39.9137L34.634 35.5718L34.5776 35.5469L34.52 35.5689C33.2923 36.0382 32.0274 36.3893 30.7332 36.6217L30.6666 36.6337L30.6315 36.6914C29.3099 38.8651 27.424 40.7069 25.1298 42.0482C22.5687 43.5455 19.6104 44.3462 16.5665 44.3692L16.5665 44.3689L16.5567 44.3696L16.5486 44.3702C16.5053 44.3734 16.4685 44.3761 16.4316 44.3761C14.3269 44.3761 12.2887 44.0126 10.3608 43.295L10.3037 43.2737L10.248 43.2983L2.51601 46.7067L2.57652 46.8439L2.51599 46.7067C2.29733 46.8031 2.0659 46.8499 1.83636 46.85C1.4066 46.85 0.983576 46.6858 0.662522 46.3744L0.662497 46.3744C0.169786 45.8968 0.0157781 45.1682 0.272964 44.5321L0.133927 44.4759L0.272968 44.5321L2.95453 37.8987L2.98589 37.8211L2.93636 37.7537C1.10914 35.2658 0.150061 32.3765 0.150061 29.3313C0.150061 24.458 2.67714 19.9294 6.94854 17.1008L7.00861 17.061L7.01511 16.9892C7.40915 12.6386 9.44047 8.60168 12.8412 5.48921C16.602 2.04723 21.5929 0.15 26.8965 0.15C32.2001 0.15 37.1911 2.04724 40.9518 5.48929C44.7573 8.97209 46.85 13.6122 46.85 18.5554C46.85 19.3728 46.7783 20.3048 46.6479 21.1784L46.7963 21.2005L46.6479 21.1784C46.5106 22.0994 45.6527 22.7349 44.7317 22.5971L44.7317 22.5971C43.8107 22.4597 43.1756 21.6018 43.313 20.6809L43.1646 20.6588L43.313 20.6809C43.4178 19.9779 43.4781 19.2038 43.4781 18.5554C43.4781 10.2521 36.0255 3.52187 26.8965 3.52187C17.7675 3.52187 10.3149 10.2521 10.3149 18.5554C10.3149 25.8288 16.9875 33.589 26.8965 33.589C29.3584 33.589 31.7296 33.1103 33.9433 32.1657C34.3724 31.9827 34.8582 31.9856 35.285 32.1738L41.707 35.0047L42.045 35.1537L41.9065 34.8112L39.7443 29.4626C39.3953 28.5993 39.8122 27.6166 40.6755 27.2677ZM16.3566 41.0033L16.3566 41.0034L16.3635 41.0032C16.3838 41.0023 16.3948 41.0015 16.4034 41.0008C16.4127 41.0001 16.4192 40.9995 16.4318 40.9995C20.0867 40.9995 23.5419 39.5719 25.9586 37.193L26.2031 36.9524L25.8605 36.9363C20.8093 36.6989 16.1341 34.7275 12.6005 31.3266C9.76052 28.5933 7.87951 25.1154 7.2131 21.4826L7.16229 21.2057L6.96079 21.4024C4.77447 23.5365 3.52193 26.3543 3.52193 29.3313C3.52193 31.932 4.44947 34.3932 6.2006 36.4476C6.60809 36.9257 6.71607 37.5908 6.48064 38.1732L5.09368 41.6041L4.95524 41.9465L5.29325 41.7975L9.59273 39.9023L9.53223 39.765L9.59275 39.9023C10.0196 39.7141 10.5054 39.7111 10.9344 39.8943L10.9344 39.8943C12.6384 40.6213 14.4625 40.9936 16.3566 41.0033Z" fill="#439F41" stroke="white" stroke-width="0.3"/>
</g>
<defs>
<clipPath id="clip0">
<rect width="47" height="47" fill="white"/>
</clipPath>
</defs>
</svg>
