<svg width="47" height="47" viewBox="0 0 47 47" fill="none" xmlns="http://www.w3.org/2000/svg">
<path d="M45.623 3.39218H39.5917C39.6136 2.72414 39.6258 2.05216 39.6258 1.37695C39.6258 0.616402 39.009 0 38.2488 0H8.75118C7.99099 0 7.37423 0.616402 7.37423 1.37695C7.37423 2.05216 7.38642 2.72414 7.40829 3.39218H1.37695C0.616402 3.39218 0 4.00858 0 4.76913C0 10.9389 1.61254 16.7597 4.54036 21.1599C7.43447 25.5098 11.2896 28.0049 15.4541 28.2476C16.3983 29.275 17.3962 30.1126 18.4358 30.7516V36.8715H16.1258C13.3331 36.8715 11.0615 39.1435 11.0615 41.9358V44.2457H10.9636C10.2031 44.2457 9.58668 44.8625 9.58668 45.6227C9.58668 46.3832 10.2031 46.9996 10.9636 46.9996H36.0364C36.7969 46.9996 37.4133 46.3832 37.4133 45.6227C37.4133 44.8625 36.7969 44.2457 36.0364 44.2457H35.9385V41.9358C35.9385 39.1435 33.6669 36.8715 30.8742 36.8715H28.5642V30.7516C29.6038 30.113 30.6021 29.275 31.5462 28.2476C35.7104 28.0049 39.5655 25.5098 42.46 21.1599C45.3878 16.7597 47 10.9389 47 4.76913C47 4.00858 46.3836 3.39218 45.623 3.39218ZM6.83313 19.6345C4.41808 16.0053 2.99918 11.2584 2.78295 6.14609H7.56213C8.05876 12.4306 9.53397 18.2396 11.8396 22.8506C12.2068 23.585 12.5909 24.2788 12.9893 24.9322C10.699 24.0673 8.57942 22.2593 6.83313 19.6345ZM33.1846 41.9358V44.2461H13.8154V41.9358C13.8154 40.6621 14.8517 39.6254 16.1258 39.6254H30.8742C32.1483 39.6254 33.1846 40.6621 33.1846 41.9358ZM25.8103 36.8715H21.1897V31.9482C21.9466 32.1476 22.7179 32.2512 23.5 32.2512C24.2821 32.2512 25.0534 32.1476 25.8103 31.9482V36.8715ZM26.663 28.6722C26.601 28.6976 26.5415 28.7285 26.4845 28.7625C25.5113 29.2466 24.5112 29.4973 23.5 29.4973C22.4892 29.4973 21.4894 29.2466 20.5166 28.7633C20.4589 28.7285 20.399 28.6976 20.3362 28.6715C19.2565 28.1006 18.212 27.2386 17.2241 26.1058C17.1721 26.0316 17.1137 25.9631 17.0488 25.9007C16.068 24.7364 15.1454 23.3042 14.3027 21.6189C11.7722 16.5582 10.3107 9.90402 10.1443 2.75391H36.8557C36.689 9.90402 35.2274 16.5586 32.6973 21.6189C31.8546 23.3042 30.932 24.7364 29.9516 25.9007C29.8863 25.9631 29.8272 26.0319 29.7755 26.1062C28.7876 27.2393 27.7427 28.101 26.663 28.6722ZM40.1669 19.6345C38.4206 22.2593 36.301 24.0673 34.0107 24.9322C34.4091 24.2788 34.7932 23.585 35.1604 22.8506C37.466 18.2396 38.9409 12.4306 39.4379 6.14609H44.217C44.0008 11.2584 42.5819 16.0053 40.1669 19.6345Z" fill="#439F41"/>
</svg>
