<svg width="49" height="49" viewBox="0 0 49 49" fill="none" xmlns="http://www.w3.org/2000/svg">
<path d="M47.4688 19.9062C48.3145 19.9062 49 19.2206 49 18.375C49 17.5294 48.3145 16.8438 47.4688 16.8438H45.1719V13.7812H47.4688C48.3145 13.7812 49 13.0956 49 12.25C49 11.4044 48.3145 10.7188 47.4688 10.7188H45.1719V8.23047C45.1719 5.80305 43.1969 3.82812 40.7695 3.82812H38.2812V1.53125C38.2812 0.685617 37.5957 0 36.75 0C35.9043 0 35.2188 0.685617 35.2188 1.53125V3.82812H32.1562V1.53125C32.1562 0.685617 31.4707 0 30.625 0C29.7793 0 29.0938 0.685617 29.0938 1.53125V3.82812H26.0312V1.53125C26.0312 0.685617 25.3457 0 24.5 0C23.6544 0 22.9688 0.685617 22.9688 1.53125V3.82812H19.9062V1.53125C19.9062 0.685617 19.2206 0 18.375 0C17.5294 0 16.8438 0.685617 16.8438 1.53125V3.82812H13.7812V1.53125C13.7812 0.685617 13.0956 0 12.25 0C11.4044 0 10.7188 0.685617 10.7188 1.53125V3.82812H8.23047C5.80305 3.82812 3.82812 5.80305 3.82812 8.23047V10.7188H1.53125C0.685617 10.7188 0 11.4044 0 12.25C0 13.0956 0.685617 13.7812 1.53125 13.7812H3.82812V16.8438H1.53125C0.685617 16.8438 0 17.5294 0 18.375C0 19.2206 0.685617 19.9062 1.53125 19.9062H3.82812V22.9688H1.53125C0.685617 22.9688 0 23.6544 0 24.5C0 25.3456 0.685617 26.0312 1.53125 26.0312H3.82812V29.0938H1.53125C0.685617 29.0938 0 29.7794 0 30.625C0 31.4706 0.685617 32.1562 1.53125 32.1562H3.82812V35.2188H1.53125C0.685617 35.2188 0 35.9044 0 36.75C0 37.5956 0.685617 38.2812 1.53125 38.2812H3.82812V40.7695C3.82812 43.1969 5.80305 45.1719 8.23047 45.1719H10.7188V47.4688C10.7188 48.3144 11.4044 49 12.25 49C13.0956 49 13.7812 48.3144 13.7812 47.4688V45.1719H16.8438V47.4688C16.8438 48.3144 17.5294 49 18.375 49C19.2206 49 19.9062 48.3144 19.9062 47.4688V45.1719H22.9688V47.4688C22.9688 48.3144 23.6544 49 24.5 49C25.3457 49 26.0312 48.3144 26.0312 47.4688V45.1719H29.0938V47.4688C29.0938 48.3144 29.7793 49 30.625 49C31.4707 49 32.1562 48.3144 32.1562 47.4688V45.1719H35.2188V47.4688C35.2188 48.3144 35.9043 49 36.75 49C37.5957 49 38.2812 48.3144 38.2812 47.4688V45.1719H40.7695C43.1969 45.1719 45.1719 43.1969 45.1719 40.7695V38.2812H47.4688C48.3145 38.2812 49 37.5956 49 36.75C49 35.9044 48.3145 35.2188 47.4688 35.2188H45.1719V32.1562H47.4688C48.3145 32.1562 49 31.4706 49 30.625C49 29.7794 48.3145 29.0938 47.4688 29.0938H45.1719V26.0312H47.4688C48.3145 26.0312 49 25.3456 49 24.5C49 23.6544 48.3145 22.9688 47.4688 22.9688H45.1719V19.9062H47.4688ZM42.1094 40.7695C42.1094 41.5084 41.5084 42.1094 40.7695 42.1094H8.23047C7.49164 42.1094 6.89062 41.5084 6.89062 40.7695V8.23047C6.89062 7.49164 7.49164 6.89062 8.23047 6.89062H40.7695C41.5084 6.89062 42.1094 7.49164 42.1094 8.23047V40.7695Z" fill="#439F41"/>
</svg>
