<svg width="16" height="16" viewBox="0 0 16 16" fill="none" xmlns="http://www.w3.org/2000/svg">
<g opacity="0.5" clip-path="url(#clip0)">
<path d="M1.53568 5.58885C1.73808 5.73168 2.34818 6.15586 3.36602 6.86119C4.38389 7.56652 5.16365 8.1096 5.70532 8.49047C5.76484 8.53222 5.89127 8.62298 6.08469 8.76286C6.27815 8.90284 6.43889 9.01595 6.5668 9.10223C6.6948 9.18848 6.84953 9.28524 7.03117 9.39235C7.21274 9.49937 7.38389 9.57986 7.5446 9.63315C7.70535 9.68688 7.85414 9.71349 7.99102 9.71349H8H8.00901C8.14589 9.71349 8.29475 9.68685 8.45549 9.63315C8.61614 9.57986 8.78745 9.49927 8.96886 9.39235C9.15037 9.28512 9.30511 9.18845 9.43311 9.10223C9.56111 9.01595 9.72173 8.90284 9.91524 8.76286C10.1086 8.62285 10.2352 8.53222 10.2947 8.49047C10.8423 8.1096 12.2352 7.1423 14.4733 5.58867C14.9078 5.28523 15.2708 4.91908 15.5624 4.49049C15.8542 4.06208 16 3.61266 16 3.14247C16 2.74956 15.8586 2.41322 15.5758 2.13349C15.293 1.85369 14.9582 1.71387 14.5714 1.71387H1.42851C0.970209 1.71387 0.617514 1.86861 0.370489 2.17808C0.123496 2.48762 0 2.87453 0 3.33877C0 3.71377 0.163745 4.12013 0.491077 4.5576C0.818379 4.99511 1.1667 5.33889 1.53568 5.58885Z" fill="white"/>
<path d="M15.107 6.54433C13.1548 7.86564 11.6725 8.89252 10.6607 9.62474C10.3215 9.87464 10.0462 10.0697 9.83486 10.2095C9.62349 10.3494 9.34238 10.4922 8.99112 10.638C8.63999 10.784 8.31275 10.8568 8.00912 10.8568H8.00002H7.99105C7.68748 10.8568 7.36005 10.784 7.00892 10.638C6.65779 10.4922 6.37649 10.3494 6.16518 10.2095C5.95394 10.0697 5.67861 9.87464 5.33936 9.62474C4.53575 9.0355 3.0566 8.00856 0.901877 6.54433C0.562504 6.31829 0.26191 6.0592 0 5.76758V12.8567C0 13.2498 0.139821 13.5859 0.419619 13.8657C0.699354 14.1455 1.03572 14.2854 1.4286 14.2854H14.5715C14.9643 14.2854 15.3006 14.1455 15.5804 13.8657C15.8603 13.5858 16 13.2498 16 12.8567V5.76758C15.744 6.05316 15.4465 6.31226 15.107 6.54433Z" fill="white"/>
</g>
<defs>
<clipPath id="clip0">
<rect width="16" height="16" fill="white"/>
</clipPath>
</defs>
</svg>
