<svg width="48" height="48" viewBox="0 0 48 48" fill="none" xmlns="http://www.w3.org/2000/svg">
<g clip-path="url(#clip0)">
<path d="M34.8511 37.3162C32.8258 33.9189 29.3155 31.6502 25.4057 31.2069V27.0363C25.4762 22.8135 26.3665 19.1922 28.0529 16.2576C35.411 16.2441 40.2347 14.0924 45.0609 8.73391C46.7508 6.87981 47.4479 5.55987 47.9991 4.5373C47.7915 4.24743 46.7689 2.29368 43.5611 0.951245C41.3067 0.0203507 36.6333 -1.05135 30.6641 2.23068L30.6341 2.24765C27.1244 4.29103 24.8418 7.07771 24.3713 9.89326C24.0792 11.641 24.492 13.3689 25.5667 14.9426C24.9495 16.029 24.4258 17.1898 23.9996 18.4242C23.5734 17.1896 23.0498 16.029 22.4326 14.9426C23.5073 13.3689 23.9199 11.641 23.6279 9.89326C23.1574 7.0778 20.8747 4.29103 17.3651 2.24765L17.3351 2.23068C11.331 -1.07047 6.61872 0.012101 4.34426 0.951338C3.97744 1.21598 1.84079 1.69849 0 4.53701C0.617034 5.78008 1.25432 6.9894 2.8388 8.72782C5.33188 11.4958 7.76157 13.3366 10.4854 14.5207C13.1843 15.6941 16.2082 16.2508 19.9462 16.2576C21.6325 19.1923 22.5228 22.8135 22.5933 27.0363V31.2069C18.6836 31.6502 15.1733 33.9188 13.1479 37.3162C6.86012 35.0614 0.000656219 39.7812 0.000656219 46.5938V48H47.9984V46.5938C47.9984 39.7844 41.1426 35.0603 34.8511 37.3162ZM27.1452 10.3569C27.4719 8.40196 29.2993 6.28321 32.0343 4.68691C36.7156 2.11856 40.298 2.6486 42.4814 3.54828C43.4545 3.96207 44.1404 4.4428 44.5809 4.81722C44.2235 5.34341 43.6877 6.06572 42.9767 6.84578C39.1629 11.0803 35.4915 12.9961 30.1154 13.3738C32.0377 11.2097 34.6014 9.42585 37.5508 8.23022L36.4943 5.62381C32.791 7.12496 29.6071 9.46222 27.3336 12.3146C27.0949 11.6761 27.0332 11.0271 27.1452 10.3569ZM4.92305 6.8395C4.21011 6.05729 3.69001 5.33348 3.35225 4.81328C3.76998 4.44571 4.4381 3.96742 5.42412 3.54819C7.23369 2.80272 11.0025 1.96435 15.9648 4.68691C18.6999 6.28321 20.5272 8.40205 20.854 10.3569C20.966 11.0271 20.9042 11.6761 20.6656 12.3145C18.3921 9.46203 15.2082 7.12496 11.5047 5.62371L10.4481 8.23012C13.3987 9.42613 15.9631 11.211 17.8857 13.376C12.4469 13.0036 8.74881 11.0873 4.92305 6.8395ZM2.95617 45.1876C3.85829 40.8205 8.79634 38.1309 13.1392 40.3746L14.4504 41.0519L15.0637 39.7095C16.6653 36.2036 20.1728 33.9382 23.9996 33.9382C27.8264 33.9382 31.3339 36.2035 32.9355 39.7094L33.5486 41.0519L34.8599 40.3746C39.1783 38.1436 44.1359 40.7959 45.0429 45.1876H2.95617Z" fill="#439F41"/>
</g>
<defs>
<clipPath id="clip0">
<rect width="48" height="48" fill="white"/>
</clipPath>
</defs>
</svg>
