<svg width="128" height="28" viewBox="0 0 128 28" fill="none" xmlns="http://www.w3.org/2000/svg">
<g clip-path="url(#clip0)">
<path fill-rule="evenodd" clip-rule="evenodd" d="M104.216 8.39647C104.705 9.21819 104.865 10.1531 104.918 11.2041L104.987 12.605V22.4009L105.058 23.8032C105.2 26.0934 106.935 27.7869 109.306 27.9309L110.739 28V12.605L110.81 11.2041C110.869 10.1648 111.028 9.21231 111.525 8.38472C112.031 7.53586 112.758 6.83158 113.632 6.34261C114.506 5.85363 115.497 5.59716 116.506 5.59895C117.514 5.60074 118.504 5.86072 119.377 6.35279C120.249 6.84486 120.973 7.55171 121.476 8.40235C121.966 9.22407 122.118 10.1766 122.177 11.2041L122.248 12.6006V22.4009L122.319 23.8032C122.467 26.1052 124.188 27.7986 126.567 27.9309L128 28V11.2041C128 8.23415 126.788 5.38575 124.631 3.28525C122.474 1.18475 119.549 0.00411322 116.497 0.00294388C114.864 0.00126748 113.25 0.338839 111.762 0.993107C110.273 1.64737 108.946 2.60327 107.867 3.79694C106.788 2.60374 105.461 1.64808 103.972 0.993614C102.484 0.339153 100.87 0.000926804 99.2369 0.00147363C96.8479 0.00147363 94.6311 0.70706 92.7948 1.92566C91.6743 0.708529 89.1675 0.00147363 87.7284 0.00147363V28L89.1675 27.9309C91.5746 27.7766 93.3143 26.1287 93.4079 23.8032L93.4849 22.4009V12.605L93.5559 11.2041C93.6163 10.1472 93.7673 9.21819 94.2581 8.3906C94.7648 7.54226 95.4912 6.83816 96.3649 6.34859C97.2385 5.85901 98.2288 5.60109 99.2369 5.60059C100.246 5.6008 101.237 5.85923 102.111 6.34996C102.985 6.84068 103.711 7.54645 104.216 8.39647ZM5.75201 27.9324L7.19115 28H28.7631L28.6921 26.6035C28.4973 24.3016 26.8226 22.6199 24.4502 22.47L23.0111 22.4009H10.0694L27.3239 5.59912L27.253 4.20412C27.1412 1.87863 25.3955 0.19845 23.0111 0.0705618L21.5719 0.00735339L0 0.00147363L0.0709752 1.40236C0.259739 3.68228 1.95861 5.39921 4.31137 5.5315L5.75201 5.60059H18.6937L1.43914 22.4024L1.51011 23.8032C1.65206 26.1111 3.36302 27.7824 5.75201 27.9309V27.9324ZM82.0821 4.09975C83.4178 5.39967 84.4773 6.94299 85.2002 8.64157C85.9231 10.3401 86.2952 12.1607 86.2952 13.9993C86.2952 15.8378 85.9231 17.6584 85.2002 19.357C84.4773 21.0555 83.4178 22.5989 82.0821 23.8988C79.3835 26.5235 75.7248 27.9979 71.91 27.9979C68.0952 27.9979 64.4364 26.5235 61.7379 23.8988C56.1218 18.432 56.1218 9.56657 61.7379 4.09975C63.0723 2.80026 64.6567 1.76937 66.4005 1.06593C68.1443 0.362493 70.0133 0.000290188 71.9009 3.37476e-06C73.7916 -0.00127437 75.6639 0.36029 77.4109 1.06402C79.1579 1.76774 80.7452 2.79982 82.0821 4.10122V4.09975ZM78.0123 8.06426C79.63 9.6401 80.5387 11.7767 80.5387 14.0044C80.5387 16.2321 79.63 18.3687 78.0123 19.9446C76.3935 21.5192 74.1985 22.4037 71.91 22.4037C69.6214 22.4037 67.4265 21.5192 65.8076 19.9446C64.19 18.3687 63.2813 16.2321 63.2813 14.0044C63.2813 11.7767 64.19 9.6401 65.8076 8.06426C67.4265 6.48961 69.6214 5.60509 71.91 5.60509C74.1985 5.60509 76.3935 6.48961 78.0123 8.06426ZM41.7168 3.37476e-06C43.6045 0.000483238 45.4736 0.362918 47.2174 1.06661C48.9612 1.7703 50.5455 2.80147 51.8799 4.10122C57.4975 9.56657 57.4975 18.4334 51.8799 23.8988C49.1813 26.5235 45.5226 27.9979 41.7077 27.9979C37.8929 27.9979 34.2342 26.5235 31.5356 23.8988C25.9195 18.432 25.9195 9.56657 31.5356 4.09975C32.8701 2.80026 34.4545 1.76937 36.1983 1.06593C37.9421 0.362493 39.8111 0.000290188 41.6987 3.37476e-06H41.7168ZM47.8101 8.06132C49.4282 9.63722 50.3372 11.7741 50.3372 14.0022C50.3372 16.2303 49.4282 18.3672 47.8101 19.9431C46.1912 21.5177 43.9963 22.4023 41.7077 22.4023C39.4192 22.4023 37.2243 21.5177 35.6054 19.9431C33.9877 18.3673 33.0791 16.2307 33.0791 14.0029C33.0791 11.7752 33.9877 9.63863 35.6054 8.06279C37.2243 6.48814 39.4192 5.60362 41.7077 5.60362C43.9963 5.60362 46.1912 6.48814 47.8101 8.06279V8.06132Z" fill="white"/>
</g>
<defs>
<clipPath id="clip0">
<rect width="128" height="28" fill="white"/>
</clipPath>
</defs>
</svg>
